<svg version="1.1" xmlns="http://www.w3.org/2000/svg" xmlns:xlink="http://www.w3.org/1999/xlink" width="48" height="48"><defs><linearGradient x1="14.22989" y1="16.18391" x2="54.98331" y2="53.02929" gradientUnits="userSpaceOnUse" id="color-1"><stop offset="0" stop-color="#000000" stop-opacity="0.3"></stop><stop offset="1" stop-color="#000000" stop-opacity="0"></stop></linearGradient><filter id="dropshadow-base"><feColorMatrix type="matrix" values="0 0 0 0 0  0 0 0 0 0  0 0 0 0 0  0 0 0 .8 0"></feColorMatrix> <feOffset dx="0" dy="1"></feOffset> <feGaussianBlur stdDeviation="1"></feGaussianBlur> <feComposite in="SourceGraphic"></feComposite></filter><filter id="dropshadow-banner" x="-10%" y="-10%" width="120%" height="130%"><feColorMatrix type="matrix" values="0 0 0 0 0  0 0 0 0 0  0 0 0 0 0  0 0 0 .4 0"></feColorMatrix> <feOffset dx="0" dy="1"></feOffset> <feGaussianBlur stdDeviation="0.5"></feGaussianBlur> <feComposite in="SourceGraphic"></feComposite></filter></defs><g fill="none" fill-rule="nonzero" stroke="none" stroke-width="none" stroke-linecap="butt" stroke-linejoin="miter" stroke-miterlimit="10" stroke-dasharray="" stroke-dashoffset="0" font-family="none" font-weight="none" font-size="none" text-anchor="none" style="mix-blend-mode: normal"><path d="M7,43c-1.10457,0 -2,-0.89543 -2,-2v-34c0,-1.10457 0.89543,-2 2,-2h34c1.10457,0 2,0.89543 2,2v34c0,1.10457 -0.89543,2 -2,2z" id="base 1 5 1" fill="#8f0000" stroke-width="1"></path><path d="M14.80205,31.24393l0,0c-0.35356,-0.35356 -0.57216,-0.84206 -0.57216,-1.38186l0.00977,-11.72413c0,-1.0796 0.86465,-1.95402 1.94425,-1.95402h0.97701l3.90804,3.90804h0.97701l-1.95402,-3.90804h1.95402l3.90804,3.90804h0.97701l-1.95402,-3.90804h1.95402l3.90804,3.90804h0.97701l-1.95402,-3.90804h3.90804l9.22989,9.22989v15.5862c0,1.10457 -0.89543,2 -2,2h-14.44187z" fill="url(#color-1)" stroke-width="1"></path><path transform="translate(0.55174,0.55174) scale(0.97701,0.97701)" d="M30,16l2,4h-3l-2,-4h-2l2,4h-3l-2,-4h-2l2,4h-3l-2,-4h-1c-1.105,0 -1.99,0.895 -1.99,2l-0.01,12c0,1.105 0.895,2 2,2h16c1.105,0 2,-0.895 2,-2v-14z" fill="none" stroke-width="0"></path><path d="M33.77011,16.18391v13.67815c0,1.0796 -0.87442,1.95402 -1.95402,1.95402h-15.63217c-1.0796,0 -1.95402,-0.87442 -1.95402,-1.95402l0.00977,-11.72413c0,-1.0796 0.86465,-1.95402 1.94425,-1.95402h0.97701l1.95402,3.90804h2.93103l-1.95402,-3.90804h1.95402l1.95402,3.90804h2.93103l-1.95402,-3.90804h1.95402l1.95402,3.90804h2.93103l-1.95402,-3.90804z" fill="#fff2f2" stroke-width="0"></path><path d="M2,24c0,-12.15026 9.84974,-22 22,-22c12.15026,0 22,9.84974 22,22c0,12.15026 -9.84974,22 -22,22c-12.15026,0 -22,-9.84974 -22,-22z" id="base 1 1 1" fill="none" stroke-width="1"></path><g fill="#000000" stroke-width="1" font-family="Roboto, sans-serif" font-weight="400" font-size="14" text-anchor="start"></g><rect x="2" y="2" width="44" height="22" fill="none" stroke-width="1"></rect><path d="M2,24v-22h44v22z" fill="none" stroke-width="1"></path><path d="M2,24v-22h44v22z" fill="none" stroke-width="1"></path><path d="M2,24v-22h44v22z" fill="none" stroke-width="1"></path><path d="M5,7c0,-1.10457 0.89543,-2 2,-2h34c1.10457,0 2,0.89543 2,2v17h-38z" id="base 1 2 1" fill-opacity="0.1" fill="#000000" stroke-width="1"></path><path d="M2,24v-22h44v22z" fill="none" stroke-width="1"></path></g></svg>